<?xml version="1.0" encoding="utf-8"?>
<!-- Generator: Adobe Illustrator 24.0.3, SVG Export Plug-In . SVG Version: 6.00 Build 0)  -->
<svg version="1.1" id="Layer_1" xmlns="http://www.w3.org/2000/svg" xmlns:xlink="http://www.w3.org/1999/xlink" x="0px" y="0px"
	 viewBox="0 0 2738.3 695.9" style="enable-background:new 0 0 2738.3 695.9;" xml:space="preserve">
<style type="text/css">
	.st0{clip-path:url(#SVGID_2_);fill:url(#SVGID_3_);}
	.st1{fill:#1A4082;}
</style>
<g>
	<defs>
		<polygon id="SVGID_1_" points="698.4,0 987.6,0 824.6,248.7 1001.9,248.7 614.2,695.9 733.1,347.9 594,347.9 		"/>
	</defs>
	<clipPath id="SVGID_2_">
		<use xlink:href="#SVGID_1_"  style="overflow:visible;"/>
	</clipPath>
	
		<linearGradient id="SVGID_3_" gradientUnits="userSpaceOnUse" x1="-34.0004" y1="726.869" x2="-33.0004" y2="726.869" gradientTransform="matrix(407.8791 0 0 -407.8791 14462.0518 296822.625)">
		<stop  offset="0" style="stop-color:#F3A700"/>
		<stop  offset="0.2537" style="stop-color:#F3A100"/>
		<stop  offset="1" style="stop-color:#FFDC00"/>
	</linearGradient>
	<rect x="594" y="0" class="st0" width="407.9" height="695.9"/>
</g>
<g>
	<path class="st1" d="M374.9,52.6c1.5-4,5.4-6.7,9.6-6.7h129.7c5.7,0,10.3,4.6,10.3,10.3v3.3c0,1.2-0.2,2.4-0.6,3.6L337,567.5
		c-1.5,4-5.4,6.7-9.6,6.7H197.2c-4.3,0-8.2-2.7-9.6-6.7L0.6,63C0.2,61.9,0,60.7,0,59.5v-3.3c0-5.7,4.6-10.3,10.3-10.3H140
		c4.3,0,8.2,2.7,9.6,6.7l112.6,303.1L374.9,52.6z"/>
	<path class="st1" d="M1396.3,574.2h-294.8c-5.7,0-10.3-4.6-10.3-10.3V56.2c0-5.7,4.6-10.3,10.3-10.3h127.6
		c5.7,0,10.3,4.6,10.3,10.3v394.9h156.8c5.7,0,10.3,4.6,10.3,10.3v102.5C1406.6,569.6,1402,574.2,1396.3,574.2"/>
	<path class="st1" d="M1717.6,161.5c0,5.7-4.6,10.3-10.3,10.3h-115.9v392.1c0,5.7-4.6,10.3-10.3,10.3h-127.7
		c-5.7,0-10.3-4.6-10.3-10.3V171.7h-115.9c-5.7,0-10.3-4.6-10.3-10.3V56.2c0-5.7,4.6-10.3,10.3-10.3h380.2c5.6,0,10.3,4.6,10.3,10.3
		V161.5z"/>
	<path class="st1" d="M2257.3,313.9c0,152.3-125.3,275.8-279.8,275.8s-279.8-123.5-279.8-275.8S1823,38,1977.5,38
		S2257.3,161.6,2257.3,313.9 M2105.5,313.9c0-69.7-57.3-126.2-128-126.2c-70.7,0-128,56.5-128,126.2s57.3,126.2,128,126.2
		C2048.2,440.1,2105.5,383.6,2105.5,313.9"/>
	<path class="st1" d="M2600.2,45.9H2728c5.7,0,10.3,4.6,10.3,10.3v507.6c0,5.7-4.6,10.3-10.3,10.3h-132c-3.7,0-7.2-2-9-5.2
		l-165.7-292.7v287.6c0,5.7-4.6,10.3-10.3,10.3h-127.7c-5.7,0-10.3-4.6-10.3-10.3V56.2c0-5.7,4.6-10.3,10.3-10.3h132.3
		c3.6,0,6.9,1.8,8.7,4.9l165.6,266.7V56.2C2589.9,50.5,2594.5,45.9,2600.2,45.9"/>
	<path class="st1" d="M666,387.9h1.6C667.1,387.8,666.6,387.8,666,387.9"/>
	<path class="st1" d="M673,390.8c-1-1.4-2.5-2.4-4.2-2.8l-128.5,0.1c34.6-114.5,92-304.9,91.7-306.5c-0.2-0.9-0.7-1.6-0.7-1.6
		c0,0-0.5-0.7-1.3-1.2c-1.3-0.8-3-0.8-4.4,0c-76.4,49.2-126.9,134.3-126.9,231c0,93,46.7,175.2,118.2,225.2c1,0.6,3.8,2.1,7.1,0.8
		c2.6-1,3.8-3.2,4.4-4.4l45.9-134.8C674.5,395.3,674.6,393,673,390.8"/>
	<path class="st1" d="M1037.1,204.4c-3-7.1-6.6-14.9-11.1-23.2c-3.4-6.3-8.8-15.9-16.5-26.9c-4.9-7.1-12.6-17.4-23.1-28.9
		c-3.8-4.1-7.9-8.3-9.6-10c-3.7-3.8-5.5-5.4-5.8-5.6c-0.1-0.1-0.5-0.4-1.1-1c-0.5-0.5-0.6-0.6-0.7-0.7c-1-0.8-2.7-0.9-4-0.4
		c-0.3,0.1-0.8,0.4-1.3,0.8L902,203.3c-0.1,0.1-0.9,1.8,0,3.5c0.7,1.3,2,1.7,2.3,1.8l130.3-0.1
		C1038.2,208.3,1037.5,205.5,1037.1,204.4"/>
	<path class="st1" d="M1053.6,259.4c-2.4-5.5-6.5-2-6.5-2l-279.5,323c0,0-3.6,4.7,2.1,5.2c2.9,0.1,5.9,0.2,8.9,0.2
		c154.5,0,279.8-123.5,279.8-275.8C1058.3,292.6,1056.6,275.7,1053.6,259.4"/>
</g>
</svg>
